<svg width="40" height="16" fill="none" xmlns="http://www.w3.org/2000/svg"><mask id="a" style="mask-type:luminance" maskUnits="userSpaceOnUse" x="4" y="13" width="5" height="3"><path d="M8.243 13.67H4.176v1.445h4.067v-1.446Z" fill="#fff"/></mask><g mask="url(#a)"><mask id="b" style="mask-type:luminance" maskUnits="userSpaceOnUse" x="4" y="13" width="5" height="2"><path d="M4.81 13.673h2.656c.35 0 .618.268.618.618s-.268.618-.618.618H4.81a.607.607 0 0 1-.618-.618c0-.35.28-.618.618-.618Z" fill="#fff"/></mask><g mask="url(#b)"><path d="M4.18 13.673h3.904v1.445H4.18v-1.445Z" fill="#284EEE"/></g></g><path d="M24.415 15.21c-2.389 0-4.09-.77-5.104-2.285l2.715-2.599c.641 1.014 1.469 1.515 2.448 1.515 1.165 0 1.888-.664 2.156-1.993l1.305-6.585h-5.163L23.436 0h9.336l-1.923 9.627c-.397 2.016-1.12 3.45-2.156 4.312-1.061.84-2.471 1.27-4.278 1.27Z" fill="#284EEE"/><mask id="c" style="mask-type:luminance" maskUnits="userSpaceOnUse" x="2" y="0" width="4" height="2"><path d="M5.753.008H2.828v1.457h2.925V.008Z" fill="#fff"/></mask><g mask="url(#c)"><mask id="d" style="mask-type:luminance" maskUnits="userSpaceOnUse" x="2" y="0" width="4" height="2"><path d="M3.516.004h1.328c.373 0 .688.315.688.688a.697.697 0 0 1-.688.687H3.516a.697.697 0 0 1-.688-.687c0-.397.291-.688.688-.688Z" fill="#fff"/></mask><g mask="url(#d)"><path d="M2.828.004h2.925V1.46H2.828V.004Z" fill="#284EEE"/></g></g><mask id="e" style="mask-type:luminance" maskUnits="userSpaceOnUse" x="6" y="2" width="7" height="3"><path d="M12.448 2.724H6.633v1.468h5.815V2.724Z" fill="#fff"/></mask><g mask="url(#e)"><mask id="f" style="mask-type:luminance" maskUnits="userSpaceOnUse" x="6" y="2" width="7" height="3"><path d="M7.332 2.731h4.382c.373 0 .688.315.688.688a.696.696 0 0 1-.688.688H7.332a.697.697 0 0 1-.687-.688c0-.373.303-.688.687-.688Z" fill="#fff"/></mask><g mask="url(#f)"><path d="M6.656 2.731h5.828V4.2H6.656V2.73Z" fill="#284EEE"/></g></g><mask id="g" style="mask-type:luminance" maskUnits="userSpaceOnUse" x="5" y="5" width="6" height="2"><path d="M10.47 5.472H5.69v1.457h4.779V5.472Z" fill="#fff"/></mask><g mask="url(#g)"><mask id="h" style="mask-type:luminance" maskUnits="userSpaceOnUse" x="5" y="5" width="6" height="2"><path d="M6.406 5.475h3.345c.373 0 .688.314.688.687a.697.697 0 0 1-.688.688H6.406a.697.697 0 0 1-.687-.688c0-.396.291-.687.687-.687Z" fill="#fff"/></mask><g mask="url(#h)"><path d="M5.719 5.475h4.86V6.93h-4.86V5.475Z" fill="#284EEE"/></g></g><mask id="i" style="mask-type:luminance" maskUnits="userSpaceOnUse" x="6" y="8" width="3" height="2"><path d="M8.523 8.2H6.238v1.386h2.285V8.2Z" fill="#fff"/></mask><g mask="url(#i)"><mask id="j" style="mask-type:luminance" maskUnits="userSpaceOnUse" x="6" y="8" width="3" height="2"><path d="M6.93 8.203h.827c.373 0 .688.315.688.688a.697.697 0 0 1-.688.687H6.93a.697.697 0 0 1-.688-.687c0-.373.315-.688.688-.688Z" fill="#fff"/></mask><g mask="url(#j)"><path d="M6.242 8.203h2.424V9.66H6.242V8.203Z" fill="#284EEE"/></g></g><mask id="k" style="mask-type:luminance" maskUnits="userSpaceOnUse" x="3" y="2" width="3" height="3"><path d="M5.963 2.736H3.54v1.457h2.424V2.736Z" fill="#fff"/></mask><g mask="url(#k)"><mask id="l" style="mask-type:luminance" maskUnits="userSpaceOnUse" x="3" y="2" width="3" height="3"><path d="M4.238 2.743h.98c.372 0 .687.315.687.688a.697.697 0 0 1-.688.687h-.979a.697.697 0 0 1-.687-.687c0-.373.303-.688.687-.688Z" fill="#fff"/></mask><g mask="url(#l)"><path d="M3.55 2.743h2.425V4.2H3.551V2.743Z" fill="#284EEE"/></g></g><mask id="m" style="mask-type:luminance" maskUnits="userSpaceOnUse" x="0" y="2" width="3" height="3"><path d="M2.909 2.736H.484v1.457H2.91V2.736Z" fill="#fff"/></mask><g mask="url(#m)"><mask id="n" style="mask-type:luminance" maskUnits="userSpaceOnUse" x="0" y="2" width="3" height="3"><path d="M1.149 2.737h.979c.373 0 .687.315.687.688a.697.697 0 0 1-.687.688h-.98a.697.697 0 0 1-.687-.688c0-.373.291-.688.688-.688Z" fill="#fff"/></mask><g mask="url(#n)"><path d="M.46 2.737h2.425v1.457H.461V2.737Z" fill="#284EEE"/></g></g><mask id="o" style="mask-type:luminance" maskUnits="userSpaceOnUse" x="4" y="10" width="5" height="3"><path d="M8.192 10.93H4.79v1.433h3.403V10.93Z" fill="#fff"/></mask><g mask="url(#o)"><mask id="p" style="mask-type:luminance" maskUnits="userSpaceOnUse" x="4" y="10" width="4" height="3"><path d="M5.457 10.93h1.83c.373 0 .688.314.688.687a.696.696 0 0 1-.688.688h-1.83a.696.696 0 0 1-.687-.688c0-.396.29-.687.687-.687Z" fill="#fff"/></mask><g mask="url(#p)"><path d="M4.77 10.93h3.403v1.457H4.77V10.93Z" fill="#284EEE"/></g></g><mask id="q" style="mask-type:luminance" maskUnits="userSpaceOnUse" x="1" y="5" width="4" height="2"><path d="M4.96 5.473H1.124v1.456h3.834V5.473Z" fill="#fff"/></mask><g mask="url(#q)"><mask id="r" style="mask-type:luminance" maskUnits="userSpaceOnUse" x="1" y="5" width="4" height="2"><path d="M1.793 5.474h2.343c.373 0 .687.314.687.687a.697.697 0 0 1-.687.688H1.793a.697.697 0 0 1-.688-.688c.012-.396.303-.687.688-.687Z" fill="#fff"/></mask><g mask="url(#r)"><path d="M1.121 5.474h3.904V6.93H1.121V5.474Z" fill="#284EEE"/></g></g><mask id="s" style="mask-type:luminance" maskUnits="userSpaceOnUse" x="2" y="8" width="4" height="2"><path d="M5.731 8.19H2.328v1.387h3.403V8.19Z" fill="#fff"/></mask><g mask="url(#s)"><mask id="t" style="mask-type:luminance" maskUnits="userSpaceOnUse" x="2" y="8" width="4" height="2"><path d="M3.024 8.192h1.934c.373 0 .688.315.688.688a.697.697 0 0 1-.688.688H3.024a.697.697 0 0 1-.688-.688c0-.373.315-.688.688-.688Z" fill="#fff"/></mask><g mask="url(#t)"><path d="M2.348 8.192H5.75V9.65H2.348V8.192Z" fill="#284EEE"/></g></g><mask id="u" style="mask-type:luminance" maskUnits="userSpaceOnUse" x="0" y="8" width="2" height="2"><path d="M1.597 8.188H0v1.386h1.597V8.188Z" fill="#fff"/></mask><g mask="url(#u)"><mask id="v" style="mask-type:luminance" maskUnits="userSpaceOnUse" x="0" y="8" width="2" height="2"><path d="M.688 8.188H.92c.373 0 .687.314.687.687a.697.697 0 0 1-.687.688H.688A.697.697 0 0 1 0 8.875c0-.373.315-.688.688-.688Z" fill="#fff"/></mask><g mask="url(#v)"><path d="M0 8.188h1.457v1.456H0V8.187Z" fill="#284EEE"/></g></g><mask id="w" style="mask-type:luminance" maskUnits="userSpaceOnUse" x="0" y="10" width="5" height="3"><path d="M4.11 10.924H.813v1.433h3.299v-1.433Z" fill="#fff"/></mask><g mask="url(#w)"><mask id="x" style="mask-type:luminance" maskUnits="userSpaceOnUse" x="0" y="10" width="5" height="3"><path d="M1.512 10.915h1.83c.373 0 .687.315.687.688a.697.697 0 0 1-.687.687h-1.83a.697.697 0 0 1-.688-.687c.012-.397.303-.688.688-.688Z" fill="#fff"/></mask><g mask="url(#x)"><path d="M.836 10.915h3.403v1.457H.836v-1.457Z" fill="#284EEE"/></g></g><mask id="y" style="mask-type:luminance" maskUnits="userSpaceOnUse" x="0" y="13" width="4" height="2"><path d="M3.823 13.526H0v1.457h3.823v-1.457Z" fill="#fff"/></mask><g mask="url(#y)"><mask id="z" style="mask-type:luminance" maskUnits="userSpaceOnUse" x="0" y="13" width="4" height="2"><path d="M.688 13.526h2.307c.373 0 .688.315.688.688a.696.696 0 0 1-.688.687H.688A.696.696 0 0 1 0 14.213c0-.372.315-.687.688-.687Z" fill="#fff"/></mask><g mask="url(#z)"><path d="M0 13.526h3.904v1.457H0v-1.457Z" fill="#284EEE"/></g></g><mask id="A" style="mask-type:luminance" maskUnits="userSpaceOnUse" x="6" y="0" width="7" height="2"><path d="M12.132.008H6.316V1.51h5.816V.008Z" fill="#fff"/></mask><g mask="url(#A)"><mask id="B" style="mask-type:luminance" maskUnits="userSpaceOnUse" x="6" y="0" width="7" height="2"><path d="M6.988.004h4.383c.372 0 .687.326.687.71 0 .385-.315.712-.687.712H6.988c-.373 0-.687-.327-.687-.711.011-.408.303-.711.687-.711Z" fill="#fff"/></mask><g mask="url(#B)"><path d="M6.313.004h5.827v1.503H6.312V.004Z" fill="#284EEE"/></g></g><mask id="C" style="mask-type:luminance" maskUnits="userSpaceOnUse" x="31" y="0" width="9" height="16"><path d="M39.888.021H31.59v15.98h8.298V.02Z" fill="#fff"/></mask><g mask="url(#C)"><path d="M36.962 4.007h-3.007V-.002H19.946a2 2 0 0 0-1.993 1.993v11.002h1.993c0 1.655 1.352 2.984 3.007 2.984s3.007-1.352 3.007-2.984h6.002c0 1.655 1.352 2.984 3.007 2.984s3.007-1.352 3.007-2.984h1.993V8.016l-3.007-4.009ZM22.976 14.485a1.487 1.487 0 0 1-1.491-1.492c0-.828.664-1.492 1.491-1.492.828 0 1.492.665 1.492 1.492s-.664 1.492-1.492 1.492Zm13.496-8.986 1.97 2.494h-4.464V5.5h2.494Zm-1.503 8.986a1.487 1.487 0 0 1-1.492-1.492c0-.828.665-1.492 1.492-1.492s1.492.665 1.492 1.492a1.473 1.473 0 0 1-1.492 1.492Z" fill="#284EEE"/></g><mask id="D" style="mask-type:luminance" maskUnits="userSpaceOnUse" x="28" y="4" width="5" height="9"><path d="M32.356 4.249h-3.45v8.74h3.45V4.25Z" fill="#fff"/></mask><g mask="url(#D)"><path d="M28.906 4.249h3.415v8.787h-3.403V4.25h-.012Z" fill="#284EEE"/></g><path d="M.922 9.563a.688.688 0 1 0 0-1.375.688.688 0 0 0 0 1.375ZM20.072 3.26l.664-3.252H9.046l-.28 1.398h2.098a.34.34 0 0 1 .105.024c.362.011.665.303.665.652 0 .327-.268.606-.618.641a.234.234 0 0 1-.152.047H8.498L8.23 4.099h1.48c.373 0 .688.314.688.687a.69.69 0 0 1-.606.676c-.023.012-.046.012-.07.012H7.951l-.268 1.363H9.22c.035 0 .058.012.093.012.315.058.571.338.571.664a.699.699 0 0 1-.57.676c-.024.012-.047.012-.082.012H7.415l-.28 1.364h1.34c.035 0 .058 0 .093.011a.7.7 0 0 1 .595.676.697.697 0 0 1-.688.688H6.867l-.268 1.364H7.648c.373 0 .687.314.687.675a.686.686 0 0 1-.687.676H6.33l-.245 1.236h11.958l.687-3.252h-7.82l.536-2.715h6.643l.618-3.147h-6.62l.478-2.506 7.506-.012Z" fill="#284EEE"/></svg>