<svg width="355" height="686" viewBox="0 0 355 686" fill="none" xmlns="http://www.w3.org/2000/svg">
<path d="M330.778 320.175L267.169 135.829C265.572 131.221 260.974 127.735 255.798 127.735C211.396 127.735 10.1432 127.735 0 127.735V564.278H345.845L330.778 320.175Z" fill="#3C5DE5"/>
<path d="M349.159 497.88C345.744 495.777 340.879 494.629 336.103 494.726L69.2596 499.527L67.9141 570.379L335.482 576.495C345.241 576.495 355 572.095 355 565.91V505.891C354.985 502.875 352.575 499.983 349.159 497.88Z" fill="#969696"/>
<path d="M281.128 307.556L242.67 165.035C241.324 160.068 236.548 156.208 231.092 156.208H80.7036C77.4803 156.208 74.3752 157.827 72.1278 159.985C69.8803 162.157 68.6678 165.284 68.7565 168.3L72.3643 282.514C72.5269 287.868 76.741 292.42 82.4041 293.264L267.643 321.295C271.621 321.89 275.643 320.603 278.363 317.822C281.069 315.055 282.104 311.209 281.128 307.556Z" fill="#C8C8C8"/>
<path d="M273.435 154.673L271.468 154.977C268.141 155.489 265.199 157.302 263.38 159.958C261.562 162.614 261.015 165.866 261.887 168.91L303.805 314.765C305.432 320.41 311.405 323.924 317.542 322.845L330.775 320.521L273.435 154.673Z" fill="#C8C8C8"/>
<path d="M135.233 338.604C135.233 344.442 130.176 349.174 123.936 349.174H78.9274C72.6877 349.174 67.6309 344.442 67.6309 338.604V337.608C67.6309 331.769 72.6877 327.037 78.9274 327.037H123.936C130.176 327.037 135.233 331.769 135.233 337.608V338.604Z" fill="#969696"/>
<path d="M17.8912 0.0315695C13.8841 -0.245144 8.75341 1.31834 5.81099 3.89177C2.86857 6.45137 0 10.3115 0 14.0748V127.749H156.008C156.022 127.735 147.639 8.8864 17.8912 0.0315695Z" fill="#969696"/>
<path d="M159.96 685.783C226.889 685.783 281.146 635.013 281.146 572.385C281.146 509.758 226.889 458.988 159.96 458.988C93.0303 458.988 38.7734 509.758 38.7734 572.385C38.7734 635.013 93.0303 685.783 159.96 685.783Z" fill="#363636"/>
<path d="M159.957 614.612C184.88 614.612 205.084 595.706 205.084 572.385C205.084 549.064 184.88 530.159 159.957 530.159C135.034 530.159 114.83 549.064 114.83 572.385C114.83 595.706 135.034 614.612 159.957 614.612Z" fill="#B7B7B7"/>
<path d="M348.212 477.168C348.212 483.352 342.86 488.361 336.25 488.361H306.087C299.478 488.361 294.125 483.352 294.125 477.168V439.452C294.125 433.267 299.478 428.259 306.087 428.259H336.25C342.86 428.259 348.212 433.267 348.212 439.452V477.168Z" fill="#969696"/>
</svg>
