<svg xmlns="http://www.w3.org/2000/svg" width="791" height="405" fill="none"><path fill="#D8D8D8" d="M84.87 403.336h666.72l-23.785-194.475c-25.949-176.8-218.142-235.51-355.336-132.557-55.717 32.398-120.881 42.645-184.508 35.781C64.108 100.203-22.451 251.93 50.496 352.558c-.006-.003 34.374 50.778 34.374 50.778Z"/><path fill="#363636" d="M555.32 138.748h-45.952a6.06 6.06 0 0 0-5.879 4.591l-56.626 226.772 4.171.006 56.162-224.914a2.852 2.852 0 0 1 2.77-2.163h45.357a2.147 2.147 0 0 0 2.147-2.148 2.15 2.15 0 0 0-2.15-2.144ZM719.048 138.937H673.02a6.059 6.059 0 0 0-5.878 4.591L610.516 370.3l4.17.006 56.162-224.914a2.851 2.851 0 0 1 2.767-2.163h45.433a2.147 2.147 0 0 0 2.148-2.148 2.15 2.15 0 0 0-2.148-2.144Z"/><path fill="#212121" d="M504.102 381.014c-.091-8.756-3.435-18.783-12.227-21.87-4.039-.922-8.31-.272-12.428-.427-10.906-1.593-18.691 8.05-18.908 22.297.22 14.246 8.002 23.886 18.908 22.294 4.118-.153 8.389.494 12.428-.427 8.734-2.972 12.194-13.295 12.227-21.867ZM426.388 371.334c-1.983-6.122-6.815-12.611-13.804-12.645-4.369.022-8.902.013-13.185.004-8.426.198-15.198 10.317-15.061 22.687.146 12.2 6.965 22.02 15.418 21.952 4.277-.015 8.554-.018 12.831 0 10.686-.485 15.372-12.992 15.314-22.321-.003-3.466-.546-6.748-1.513-9.677Z"/><path fill="#DD8447" d="M642.18 237.584H532.033V373.39H642.18V237.584Z"/><path fill="#FDF1E6" d="M603.637 237.584H590.59v15.486h13.047v-15.486Z"/><path fill="#F2A263" d="M550.289 237.584H384.334V373.39h165.955V237.584Z"/><path fill="#FDF1E6" d="M477.144 237.584h-19.662v15.486h19.662v-15.486Z"/><path fill="#363636" d="M657.986 372.197H368.523v7.746h289.463v-7.746Z"/><path fill="#212121" d="M513.255 372.197H368.523v7.746h144.732v-7.746ZM632.962 358.689c-3.353.018-6.705.018-10.058 0-22.764-3.231-24.079 43.914-2.874 44.646 3.353-.018 6.706-.018 10.058 0 22.761 3.231 24.079-43.914 2.874-44.646Z"/><path fill="#363636" d="M648.276 381.013c-.4 29.378-30.235 29.375-30.631 0 .399-29.38 30.237-29.377 30.631 0Z"/><path fill="#B7B7B7" d="M638.452 381.014c-.143 11.318-10.842 11.318-10.985 0 .146-11.321 10.845-11.321 10.985 0Z"/><path fill="#212121" d="M556.757 358.689c-3.353.018-6.705.018-10.058 0-22.764-3.231-24.079 43.914-2.874 44.646 3.353-.018 6.705-.018 10.058 0 22.761 3.231 24.076-43.914 2.874-44.646Z"/><path fill="#363636" d="M572.071 381.013c-.397 29.378-30.235 29.375-30.632 0 .4-29.38 30.235-29.377 30.632 0Z"/><path fill="#B7B7B7" d="M562.247 381.014c-.143 11.318-10.842 11.318-10.985 0 .143-11.321 10.842-11.321 10.985 0Z"/><path fill="#F4D2C6" d="m377.367 128.705-39.982 32.447-12.922-14.146-16.775 15.323c1.97 2.184 13.727 14.979 15.335 16.861 6.498 7.608 19.179 7.633 25.717.064l36.403-40.409-7.776-10.14Z"/><mask id="a" width="79" height="57" x="307" y="128" maskUnits="userSpaceOnUse" style="mask-type:luminance"><path fill="#fff" d="m377.367 128.705-39.982 32.446-12.922-14.146-16.775 15.324c1.97 2.184 13.727 14.978 15.335 16.861 6.498 7.608 19.179 7.632 25.717.064l36.403-40.409-7.776-10.14Z"/></mask><g mask="url(#a)"><path fill="#EDA19D" d="m337.385 161.148-10.955 23.811-12.096-10.665 19.134-18.539 3.917 5.393Z"/></g><path fill="#363636" d="M399.426 197.4h-37.019a3.612 3.612 0 0 1-3.612-3.612v-54.643a3.612 3.612 0 0 1 3.612-3.612h37.019a3.612 3.612 0 0 1 3.612 3.612v54.646a3.615 3.615 0 0 1-3.612 3.609Z"/><path fill="#F3F5FB" d="M398.706 140.292h-35.583v52.386h35.583v-52.386Z"/><path fill="#212121" d="M387.062 141.756h-12.294a1.445 1.445 0 0 1-1.446-1.446v-4.695c0-.799.647-1.446 1.446-1.446h12.294c.8 0 1.446.647 1.446 1.446v4.695c0 .8-.646 1.446-1.446 1.446Z"/><path fill="#E3EAF4" d="M395.692 149.032h-29.551v3.563h29.551v-3.563ZM395.692 156.86h-29.551v3.563h29.551v-3.563ZM395.692 164.685h-29.551v3.563h29.551v-3.563ZM395.692 172.513h-29.551v3.563h29.551v-3.563ZM386.861 180.341h-20.72v3.563h20.72v-3.563Z"/><path fill="#F4D2C6" d="M375.131 132.708c-.559 4.685 3.276 7.114 6.925 8.95 5.323 3.264 12.705-2.083 11.104-8.172-.574-4.305-3.328-6.404-7.352-7.395-4.518-1.458-10.302 1.675-10.677 6.617Z"/><path fill="#93B2E8" d="m238.96 164.03 43.427-22.777-13.86-26.425-43.426 22.777 13.859 26.425Z"/><path fill="#F4D2C6" d="m223.316 169.096 14.097-9.436-9.85-17.355c-8.341 4.915-22.057 10.012-21.864 21.73.753 4.789-5.55 58.005-.385 60.299 6.086 6.928 12.776 1.257 18.356-2.85l-7.798-.079 7.444-52.309Z"/><mask id="b" width="35" height="86" x="203" y="142" maskUnits="userSpaceOnUse" style="mask-type:luminance"><path fill="#fff" d="m223.316 169.096 14.097-9.436-9.85-17.355c-8.341 4.915-22.057 10.012-21.864 21.73.753 4.789-5.55 58.005-.385 60.299 6.086 6.928 12.776 1.257 18.356-2.85l-7.798-.079 7.444-52.309Z"/></mask><g mask="url(#b)"><path fill="#EDA19D" d="m221.355 142.631 5.101 20.415 11.693-7.614-8.008-17.468-8.786 4.667Z"/></g><path fill="#93B2E8" d="m338.154 155.911-34.674-34.674-21.098 21.099 34.673 34.673 21.099-21.098Z"/><path fill="#3C7ED7" d="m317.787 176.283-5.82-31.879 9.838 27.861-4.018 4.018Z"/><path fill="#363636" d="m244.898 192.753 3.707 194.225h13.06l27.373-194.664-44.14.439Z"/><mask id="c" width="46" height="195" x="244" y="192" maskUnits="userSpaceOnUse" style="mask-type:luminance"><path fill="#fff" d="m244.896 192.753 3.707 194.225h13.06l27.373-194.665-44.14.44Z"/></mask><g mask="url(#c)"><path fill="#363636" d="M281.703 244.483c-18.978 25.21-24.695 108.844-26.193 145.131h11.458l14.173-88.981.562-56.15Z"/></g><path fill="#363636" d="m318.676 192.753-3.707 194.225h-13.682l-26.754-194.664 44.143.439Z"/><mask id="d" width="45" height="195" x="274" y="192" maskUnits="userSpaceOnUse" style="mask-type:luminance"><path fill="#fff" d="m318.676 192.753-3.707 194.225h-13.682l-26.754-194.665 44.143.44Z"/></mask><g mask="url(#d)"><path fill="#363636" d="M281.705 244.483c16.138 20.5 25.034 114.573 25.427 143.993h-10.528l-14.899-143.993Z"/></g><path fill="#EDA19D" d="M269.041 85.386c1.003 6.037-4.189 6.919-5.235.888-1.004-6.034 4.188-6.916 5.235-.888ZM294.044 85.386c-1.004 6.037 4.189 6.919 5.235.888 1.004-6.034-4.192-6.916-5.235-.888Z"/><path fill="#F4D2C6" d="M296.401 86.136c-.369 23.783-29.353 23.78-29.719 0-2.636-24.347 31.568-24.585 29.719 0Z"/><mask id="e" width="31" height="37" x="266" y="67" maskUnits="userSpaceOnUse" style="mask-type:luminance"><path fill="#fff" d="M296.399 86.136c-.369 23.783-29.353 23.78-29.719 0-2.636-24.347 31.568-24.585 29.719 0Z"/></mask><g mask="url(#e)"><path fill="#EDA19D" d="M267.965 77.573s11.232 2.322 26.293-1.858l-1.629-5.381-21.919.778-2.745 5.543"/></g><path fill="#F4D2C6" d="M289.242 90.505h-15.403c1.858 5.305-2.196 31.87-2.196 31.87h19.795c0-.003-4.054-26.568-2.196-31.87Z"/><path fill="#EDA19D" d="M274.049 101.75s6.98 5.381 14.982 0l.421 4.817s-8.615 4.027-15.827.049l.424-4.866Z"/><path fill="#59445A" d="M268.695 73.315s19.432 1.934 24.444-1.056c5.013-2.99 3.957-13.102 3.957-13.102-2.849.454-35.134-.336-28.401 14.158Z"/><path fill="#59445A" d="M269.064 66.82s-5.427 1.63-6.08 3.853c-.653 2.227 3.899 10.83 3.899 10.83a2.647 2.647 0 0 0 2.553-2.047l1.69-7.26-2.062-5.376ZM293.974 66.82s5.427 1.63 6.08 3.853c.653 2.227-3.898 10.83-3.898 10.83-1.23.034-2.362-1.007-2.554-2.05l-1.69-7.258 2.062-5.375Z"/><path fill="#34254B" d="M291.912 72.805s4.384-2.538 4.488-5.064c0 0 1.656 6.09-4.488 5.064Z"/><path fill="#212121" d="m250.8 386.979-1.44 5.048-15.571 6.672a5.044 5.044 0 0 0-3.057 4.637h32.154l-1.22-16.357H250.8ZM312.151 386.979l1.44 5.048 15.57 6.672a5.044 5.044 0 0 1 3.057 4.637h-32.154l1.221-16.357h10.866Z"/><path fill="#93B2E8" d="M312.314 140.093c-2.932-19.53-17.844-29.314-34.555-27.151-13.343-.491-25.366 13.081-27.026 27.172l-10.887 71.934h83.361l-10.893-71.955Z"/><mask id="f" width="85" height="101" x="239" y="112" maskUnits="userSpaceOnUse" style="mask-type:luminance"><path fill="#fff" d="M312.316 140.093c-2.932-19.53-17.844-29.314-34.555-27.151-13.344-.491-25.366 13.081-27.026 27.172l-10.887 71.934h83.361l-10.893-71.955Z"/></mask><g mask="url(#f)"><path fill="#93B2E8" d="m272.854 213.842 15.351-16.443-32.154-52.199 10.974 48.465-32.935 23.17 38.764-2.993Z"/></g><path fill="#F2A263" d="m256.055 145.18-62.647 27.939 23.006 51.585 62.646-27.938-23.005-51.586Z"/><path fill="#FDF1E6" d="m229.599 156.98-9.738 4.342 3.46 7.757 9.737-4.343-3.459-7.756Z"/><path fill="#F4D2C6" d="M211.037 216.835c3.313.726 9.698.512 10.317 5.034l-10.317.521v-5.555ZM272.854 113.474c3.007 8.923 14.365 8.92 17.373 0 0 0-7.431-4.021-17.373 0Z"/><path fill="#363636" d="M245.221 212.067h73.087l-72.77 14.14-.317-14.14Z"/><path fill="#F3F5FB" d="m272.853 113.473 8.288 6.718-3.432 2.169c-5.473 2.876-6.363-4.701-7.693-8.081.003.003 1.446-.629 2.837-.806ZM283.219 120.029l3.227 2.001c2.264 1.407 5.235.107 5.739-2.51l1-5.184s-2.26-.75-2.959-.863l-7.007 6.556Z"/><path fill="#F2A263" d="M185.338 289.645h-94.1v113.688h94.1V289.645Z"/><path fill="#FDF1E6" d="M145.559 289.645H131.02v11.031h14.539v-11.031Z"/><path fill="#F08F3C" d="M234.49 289.645h-49.152v113.688h49.152V289.645Z"/><path fill="#FDF1E6" d="M218.778 289.645h-12.456v11.031h12.456v-11.031Z"/><path fill="#284EEE" d="M148.924 146.506c-5.295 44.909-30.764 44.868-36.049 0 .404-23.692 35.646-23.692 36.049 0Z"/><path fill="#fff" d="M140.549 145.557c-.216 12.682-19.081 12.68-19.297 0 .218-12.681 19.081-12.679 19.297 0Z"/><path fill="#284EEE" d="M539.404 17.769c-5.295 44.908-30.763 44.868-36.049 0 .405-23.692 35.647-23.692 36.049 0Z"/><path fill="#fff" d="M531.029 16.82c-.216 12.682-19.081 12.68-19.297 0 .218-12.682 19.081-12.68 19.297 0Z"/><path fill="#324D90" d="m670.345 90.604-18.836 34.802c-.379.698-1.472.674-1.814-.04l-4.847-10.171 25.497-24.591Z"/><path fill="#93B2E8" d="m644.845 115.192-13.126-4.005 38.626-20.583-25.5 24.588Z"/><path fill="#93B2E8" d="m670.344 90.604-17.405 27.303 15.634 4.808 1.771-32.111Z"/><path fill="#324D90" d="m647.735 134.103-.495-.17c.219-.531.435-1.062.645-1.59l.495.168c-.21.531-.426 1.062-.645 1.592ZM400.176 221.169l-.09-.479a28.651 28.651 0 0 0 3.568-.806l.159.464a29.64 29.64 0 0 1-3.637.821Zm5.152-1.306-.186-.454a35.585 35.585 0 0 0 3.369-1.37l.239.433a37.148 37.148 0 0 1-3.422 1.391Zm4.837-2.08-.255-.424a51.854 51.854 0 0 0 3.162-1.761l.289.406a51.751 51.751 0 0 1-3.196 1.779Zm4.525-2.596-.299-.4a90.68 90.68 0 0 0 3.007-1.992l.319.387a93.47 93.47 0 0 1-3.027 2.005Zm4.292-2.892-.322-.385c1.027-.726 2.046-1.464 2.924-2.099l.328.382c-.877.634-1.9 1.375-2.93 2.102Zm4.18-3.008-.329-.382c.937-.677 1.936-1.403 2.93-2.102l.322.385c-.99.698-1.99 1.421-2.923 2.099Zm4.192-2.978-.315-.387a76.685 76.685 0 0 1 3.036-1.986l.296.402a74.476 74.476 0 0 0-3.017 1.971Zm4.339-2.776-.286-.409a72.702 72.702 0 0 1 3.189-1.775l.263.421a71.11 71.11 0 0 0-3.166 1.763Zm4.551-2.468-.249-.427a69.052 69.052 0 0 1 3.332-1.538l.223.44a69.3 69.3 0 0 0-3.306 1.525Zm99.239-.116h-.339l.004-.485a56.108 56.108 0 0 0 3.694-.101l.037.486c-1.107.064-2.25.1-3.396.1Zm-1.94-.03a88.91 88.91 0 0 1-3.721-.214l.044-.482c1.229.089 2.465.174 3.697.214l-.02.482Zm6.93-.196-.053-.482a43.104 43.104 0 0 0 3.651-.491l.1.476c-1.18.211-2.422.378-3.698.497Zm-12.239-.143a197.433 197.433 0 0 1-3.7-.348l.059-.482c1.259.131 2.502.247 3.691.345l-.05.485Zm-5.285-.519a219.183 219.183 0 0 1-3.688-.439l.073-.482c1.263.159 2.502.308 3.681.439l-.066.482Zm22.79-.149-.126-.47a31.725 31.725 0 0 0 3.518-.991l.186.454a32.565 32.565 0 0 1-3.578 1.007Zm-28.059-.494a386.532 386.532 0 0 1-3.678-.507l.08-.479c1.223.174 2.445.345 3.671.507l-.073.479Zm52.58-.134-.004-.486a54.7 54.7 0 0 0 3.694-.137l.04.485a56.469 56.469 0 0 1-3.73.138Zm-1.602-.022a41.89 41.89 0 0 1-3.727-.268l.066-.482c1.17.137 2.409.225 3.678.262l-.017.488Zm6.927-.244-.053-.482a75.05 75.05 0 0 0 3.667-.439l.083.479c-1.252.18-2.498.329-3.697.442Zm-134.59-.079-.213-.446a67.287 67.287 0 0 1 3.459-1.281l.182.455c-1.146.393-2.302.82-3.428 1.272Zm122.348-.165a30.736 30.736 0 0 1-3.641-.817l.159-.461c1.12.329 2.322.598 3.572.802l-.09.476Zm-50.915-.091c-1.226-.18-2.449-.363-3.668-.55l.086-.479c1.22.187 2.442.37 3.665.55l-.083.479Zm38.377-.348-.219-.443a21.853 21.853 0 0 0 3.199-1.641l.299.4a22.015 22.015 0 0 1-3.279 1.684Zm30.052-.006-.093-.476a68.035 68.035 0 0 0 3.621-.696l.123.473a76.388 76.388 0 0 1-3.651.699Zm-73.668-.437c-1.223-.189-2.446-.378-3.665-.57l.09-.479 3.664.571-.089.478Zm50.998-.433a21.093 21.093 0 0 1-3.362-1.546l.282-.409a.959.959 0 0 1 .067.039l-.137-.152a15.47 15.47 0 0 0 2.542-2.398l.418.296a15.876 15.876 0 0 1-2.541 2.413 21.73 21.73 0 0 0 2.92 1.309l-.189.448Zm27.869-.195-.136-.47a65.042 65.042 0 0 0 3.538-.982l.17.461a65.534 65.534 0 0 1-3.572.991Zm-140.138-.082-.169-.458a68.327 68.327 0 0 1 3.561-1.013l.143.467a74.01 74.01 0 0 0-3.535 1.004Zm56.035-.104c-1.223-.189-2.445-.378-3.664-.564l.086-.479c1.219.186 2.442.375 3.664.564l-.086.479Zm-5.236-.802a540.18 540.18 0 0 0-3.667-.534l.079-.479c1.223.171 2.449.351 3.675.534l-.087.479Zm-45.736-.47-.129-.47a69.453 69.453 0 0 1 3.637-.744l.1.476a72.445 72.445 0 0 0-3.608.738Zm140.152-.018-.183-.455a64.26 64.26 0 0 0 3.432-1.26l.209.445a69.403 69.403 0 0 1-3.458 1.27Zm-99.661-.263a264.237 264.237 0 0 0-3.675-.476l.07-.482c1.183.144 2.385.299 3.684.476l-.079.482Zm62.031-.47a16.4 16.4 0 0 1-2.695-2.416l.409-.308c.767.86 1.648 1.651 2.611 2.343l-.325.381Zm-67.287-.195a190.766 190.766 0 0 0-3.684-.39l.056-.482c1.186.112 2.429.247 3.698.393l-.07.479Zm-30.066-.052-.089-.479a78.35 78.35 0 0 1 3.687-.488l.063.482a77.42 77.42 0 0 0-3.661.485Zm24.797-.482c-1.259-.11-2.502-.201-3.698-.277l.037-.485c1.199.076 2.448.167 3.711.277l-.05.485Zm-19.557-.158-.05-.482a88.827 88.827 0 0 1 3.717-.254l.027.485a78.71 78.71 0 0 0-3.694.251Zm14.271-.208a120.838 120.838 0 0 0-3.704-.131l.014-.485c1.205.024 2.458.067 3.72.131l-.03.485Zm120.388-.046-.222-.439a66.23 66.23 0 0 0 3.302-1.519l.249.427a64.797 64.797 0 0 1-3.329 1.531Zm-129.384-.061-.017-.485a93.656 93.656 0 0 1 3.725-.045l-.004.485a108.29 108.29 0 0 0-3.704.045Zm92.256-1.787-.448-.257c.634-.942 1.169-1.97 1.514-3.032l.505.14c-.358 1.105-.91 2.169-1.571 3.149Zm41.856-.391-.263-.421a69.333 69.333 0 0 0 3.166-1.757l.286.409a71.655 71.655 0 0 1-3.189 1.769Zm-50.929-.235c-.724-1.009-1.275-2.062-1.634-3.127l.505-.143a11.4 11.4 0 0 0 1.574 3.005l-.445.265Zm55.457-2.343-.296-.402a73.907 73.907 0 0 0 3.02-1.971l.316.387c-1 .69-2.024 1.358-3.04 1.986Zm-44.444-1.632-.521-.079c.199-1.104.206-2.236-.034-3.304l.519-.097c.252 1.128.245 2.318.036 3.48Zm-13.019-.607c-.196-1.159-.186-2.364.166-3.484l.508.132c-.329 1.055-.335 2.187-.149 3.276l-.525.076Zm61.775-.637-.326-.382a81.9 81.9 0 0 0 2.867-2.156l.346.369a89.471 89.471 0 0 1-2.887 2.169Zm4.09-3.139-.353-.363a90.125 90.125 0 0 0 2.715-2.322l.368.348c-.9.802-1.817 1.589-2.73 2.337Zm-53.846-.354c-.452-1.016-1.226-2.001-2.106-2.609l.322-.384c.954.659 1.784 1.711 2.273 2.807l-.489.186Zm-10.767-.519-.462-.235a6.88 6.88 0 0 1 2.661-2.504l.266.421a6.313 6.313 0 0 0-2.465 2.318Zm68.483-2.495-.376-.342a93.728 93.728 0 0 0 2.565-2.462l.389.33c-.847.842-1.714 1.674-2.578 2.474Zm-61.138-.275c-1.083-.381-2.302-.418-3.478-.104l-.146-.466c1.286-.342 2.624-.302 3.817.119l-.193.451Zm64.789-3.292-.395-.323c.81-.836 1.624-1.705 2.418-2.584l.405.311a94.005 94.005 0 0 1-2.428 2.596Zm3.445-3.737-.412-.305c.764-.872 1.532-1.778 2.279-2.69l.422.293a104.5 104.5 0 0 1-2.289 2.702Zm3.246-3.88-.426-.287c.725-.906 1.446-1.842 2.147-2.779l.435.275c-.705.942-1.432 1.882-2.156 2.791Zm3.053-4.002-.439-.269c.678-.93 1.359-1.891 2.02-2.855l.449.259c-.668.964-1.349 1.928-2.03 2.865Zm2.87-4.113-.452-.253c.641-.958 1.279-1.94 1.901-2.925l.458.244c-.621.985-1.266 1.973-1.907 2.934Zm2.701-4.206-.458-.238c.601-.98 1.202-1.98 1.787-2.984l.465.229a162.151 162.151 0 0 1-1.794 2.993Zm2.535-4.284-.469-.225c.565-.995 1.13-2.017 1.678-3.033l.475.214a149.534 149.534 0 0 1-1.684 3.044Zm2.382-4.359-.475-.21a153.808 153.808 0 0 0 1.574-3.085l.482.202a218.563 218.563 0 0 1-1.581 3.093Zm2.232-4.429-.481-.199c.498-1.025.993-2.077 1.475-3.127l.485.189a148.25 148.25 0 0 1-1.479 3.137Zm2.093-4.491-.488-.183c.468-1.046.93-2.111 1.375-3.167l.492.177c-.445 1.056-.91 2.124-1.379 3.173ZM396.714 221.492l-.017-.485a27.815 27.815 0 0 0 1.827-.116l.057.482c-.618.061-1.246.101-1.867.119ZM392.995 221.284a18.631 18.631 0 0 1-3.542-1.125l.226-.44c1.107.479 2.263.845 3.436 1.093l-.12.472Zm-4.963-1.812a18.307 18.307 0 0 1-3.024-2.031l.356-.36a17.642 17.642 0 0 0 2.933 1.973l-.265.418Zm-4.166-3.072a16.07 16.07 0 0 1-2.23-2.767l.456-.244a15.508 15.508 0 0 0 2.159 2.682l-.385.329Zm-2.974-4.075a15.836 15.836 0 0 1-1.226-3.252l.515-.11a15.278 15.278 0 0 0 1.19 3.154l-.479.208Zm-1.521-4.701a14.888 14.888 0 0 1-.133-3.438l.528.033a14.644 14.644 0 0 0 .126 3.338l-.521.067Z"/><path fill="#152E60" d="M0 403.708c259.798-1.022 531.202-1.031 791 0-259.798 1.032-531.205 1.022-791 0Z"/><path fill="#D4E8FC" d="M192.769 244.142H74.649a3.8 3.8 0 0 1-3.8-3.799v-41.179a3.8 3.8 0 0 1 3.8-3.799h118.124a3.8 3.8 0 0 1 3.799 3.799v41.183a3.802 3.802 0 0 1-3.803 3.795Z"/><path fill="#fff" d="M186.898 239.222H71.003a5.716 5.716 0 0 1-5.718-5.717v-38.343a5.717 5.717 0 0 1 5.718-5.718h115.895a5.717 5.717 0 0 1 5.718 5.718v38.343a5.716 5.716 0 0 1-5.718 5.717Z"/><path fill="#000" d="m92.35 222.478-3.09-13.608h3.945l2.605 11.8h-2.507l7.406-11.8h3.966l-8.534 13.608H92.35Zm10.51 0 2.1-10.537h3.674l-2.1 10.537h-3.674Zm4.452-11.703c-.648 0-1.166-.175-1.555-.525a1.747 1.747 0 0 1-.564-1.303c0-.596.214-1.095.641-1.497.441-.401 1.018-.602 1.731-.602.648 0 1.166.168 1.555.505.389.337.583.758.583 1.264 0 .635-.22 1.153-.661 1.555-.441.402-1.017.603-1.73.603Zm1.604 11.703 2.1-10.537h3.499l-.603 2.994-.35-.856c.467-.842 1.082-1.438 1.847-1.788.765-.35 1.659-.525 2.683-.525l-.642 3.324a2.603 2.603 0 0 0-.427-.039 4.438 4.438 0 0 0-.409-.019c-.803 0-1.464.194-1.982.583-.506.376-.843 1.005-1.011 1.886l-1.011 4.977h-3.694Zm13.249 3.946c-1.05 0-2.009-.117-2.877-.35-.868-.22-1.62-.557-2.255-1.011l1.652-2.566c.415.324.94.583 1.575.778a6.538 6.538 0 0 0 2.002.311c.959 0 1.665-.208 2.119-.622.454-.402.758-.985.914-1.75l.33-1.633.739-2.741.583-2.974.37-1.925h3.518l-1.711 8.593c-.414 2.086-1.218 3.589-2.41 4.51-1.179.92-2.696 1.38-4.549 1.38Zm.272-4.491a5.058 5.058 0 0 1-2.294-.525 4.385 4.385 0 0 1-1.691-1.535c-.415-.674-.622-1.484-.622-2.43 0-.791.142-1.53.428-2.217a5.797 5.797 0 0 1 1.224-1.807 5.69 5.69 0 0 1 1.847-1.206 5.745 5.745 0 0 1 2.274-.447c.778 0 1.465.149 2.061.447.609.298 1.063.791 1.361 1.478.311.687.389 1.62.233 2.799-.129 1.153-.408 2.138-.836 2.955-.414.803-.959 1.419-1.633 1.847-.674.427-1.458.641-2.352.641Zm1.089-2.955c.492 0 .92-.103 1.283-.311a2.19 2.19 0 0 0 .875-.874c.22-.389.33-.836.33-1.342 0-.518-.175-.933-.525-1.244-.337-.324-.816-.486-1.438-.486-.493 0-.927.11-1.303.33a2.283 2.283 0 0 0-.894.895c-.207.376-.311.816-.311 1.322 0 .518.175.933.525 1.244.363.311.849.466 1.458.466Zm7.583 3.5 2.099-10.537h3.674l-2.099 10.537h-3.674Zm4.452-11.703c-.648 0-1.167-.175-1.556-.525a1.75 1.75 0 0 1-.563-1.303c0-.596.213-1.095.641-1.497.441-.401 1.017-.602 1.73-.602.648 0 1.167.168 1.555.505.389.337.584.758.584 1.264 0 .635-.221 1.153-.661 1.555-.441.402-1.018.603-1.73.603Zm10.293.991c.895 0 1.653.188 2.275.564.622.363 1.063.907 1.322 1.633.272.713.298 1.607.078 2.683l-1.167 5.832h-3.693l1.088-5.483c.143-.673.097-1.192-.136-1.555-.22-.363-.635-.544-1.244-.544-.622 0-1.147.194-1.575.583-.427.389-.725.985-.894 1.789l-1.05 5.21h-3.693l2.099-10.537h3.5l-.603 2.955-.467-.855c.506-.791 1.128-1.368 1.867-1.731a5.233 5.233 0 0 1 2.293-.544Zm4.847 10.712 2.099-10.537h3.674l-2.099 10.537h-3.674Zm4.451-11.703c-.648 0-1.166-.175-1.555-.525a1.747 1.747 0 0 1-.564-1.303c0-.596.214-1.095.642-1.497.441-.401 1.017-.602 1.73-.602.648 0 1.166.168 1.555.505.389.337.583.758.583 1.264 0 .635-.22 1.153-.66 1.555-.441.402-1.018.603-1.731.603Zm6.406 11.877a4.434 4.434 0 0 1-2.158-.563 4.39 4.39 0 0 1-1.671-1.633c-.415-.713-.622-1.581-.622-2.605 0-.881.149-1.691.447-2.43a6.04 6.04 0 0 1 1.224-1.925 5.72 5.72 0 0 1 1.828-1.263 5.396 5.396 0 0 1 2.216-.467c.855 0 1.587.169 2.197.506.622.324 1.075.855 1.36 1.594.286.725.35 1.71.195 2.955-.117 1.179-.395 2.209-.836 3.09-.441.882-1.011 1.562-1.711 2.042-.7.466-1.523.699-2.469.699Zm1.283-2.974c.493 0 .927-.123 1.303-.369.376-.246.667-.59.875-1.03.22-.441.33-.953.33-1.536 0-.609-.175-1.095-.525-1.458-.35-.376-.842-.564-1.477-.564a2.3 2.3 0 0 0-1.303.389 2.569 2.569 0 0 0-.894 1.03c-.207.441-.311.953-.311 1.536 0 .609.175 1.095.525 1.458.35.363.842.544 1.477.544Zm1.556 2.8.369-1.769.7-3.48.466-3.48.37-1.808h3.693l-2.099 10.537h-3.499Z"/><path fill="#fff" d="M621.033 113.484H421.675c-5.435 0-9.839-2.542-9.839-5.679V69.742c0-3.137 4.404-5.678 9.839-5.678h199.358c5.435 0 9.839 2.541 9.839 5.678v38.066c0 3.134-4.404 5.676-9.839 5.676Z"/><path fill="#000" d="m424.378 96.96 2.966-14.828h3.411l4.088 10.105h-1.801l7.924-10.105h3.58l-2.924 14.829h-3.877l1.759-8.982.699-.022-5.868 7.542h-1.843l-3.199-7.563.741.064-1.8 8.96h-3.856Zm25.254.192a4.829 4.829 0 0 1-2.351-.615c-.749-.41-1.356-1.003-1.822-1.78-.452-.776-.678-1.722-.678-2.838 0-.96.162-1.843.487-2.648a6.572 6.572 0 0 1 1.335-2.097 6.224 6.224 0 0 1 1.991-1.377 5.882 5.882 0 0 1 2.415-.509c.932 0 1.73.184 2.394.551.678.353 1.172.932 1.483 1.737.311.791.381 1.864.212 3.22-.127 1.285-.431 2.408-.911 3.369-.48.96-1.102 1.701-1.864 2.224-.763.508-1.66.763-2.691.763Zm1.398-3.242c.537 0 1.01-.134 1.42-.402.409-.268.727-.643.953-1.123.24-.48.36-1.038.36-1.674 0-.663-.191-1.193-.572-1.588-.381-.41-.918-.615-1.61-.615a2.5 2.5 0 0 0-1.419.424c-.41.268-.735.643-.975 1.123-.226.48-.339 1.038-.339 1.673 0 .664.191 1.194.572 1.59.382.395.918.592 1.61.592Zm1.695 3.05.403-1.927.762-3.792.509-3.792.402-1.97h4.025l-2.288 11.482h-3.813Zm6.404 0 2.288-11.481h3.814l-.657 3.262-.381-.932c.508-.918 1.179-1.567 2.012-1.949.833-.381 1.808-.572 2.924-.572l-.7 3.623a2.845 2.845 0 0 0-.466-.043 4.466 4.466 0 0 0-.444-.02c-.876 0-1.596.211-2.161.635-.551.41-.918 1.094-1.102 2.055l-1.102 5.423h-4.025Zm11.038 4.301a6.042 6.042 0 0 1-1.801-.275c-.607-.184-1.087-.424-1.44-.72l1.8-2.839c.24.198.509.353.805.466.297.127.622.19.975.19.395 0 .734-.098 1.017-.296.282-.198.55-.508.805-.932l.826-1.335.339-.402 5.783-9.64h3.94l-7.351 11.991c-.593.975-1.172 1.738-1.737 2.288-.565.551-1.165.939-1.8 1.165-.636.226-1.356.339-2.161.339Zm2.118-3.813-2.69-11.97h4.004l1.906 9.28-3.22 2.69Zm9.684-.487 3.135-15.719h4.025l-3.135 15.719h-4.025Zm11.873.19a4.829 4.829 0 0 1-2.351-.614c-.749-.41-1.356-1.003-1.822-1.78-.452-.776-.678-1.722-.678-2.838 0-.96.163-1.843.487-2.648a6.572 6.572 0 0 1 1.335-2.097 6.224 6.224 0 0 1 1.991-1.377 5.882 5.882 0 0 1 2.415-.509c.933 0 1.731.184 2.394.551.678.353 1.173.932 1.483 1.737.311.791.382 1.864.212 3.22-.127 1.285-.431 2.408-.911 3.369-.48.96-1.101 1.701-1.864 2.224-.763.508-1.66.763-2.691.763Zm1.399-3.24c.536 0 1.009-.135 1.419-.403.41-.268.727-.643.953-1.123.24-.48.36-1.038.36-1.674 0-.663-.19-1.193-.572-1.588-.381-.41-.918-.615-1.61-.615-.522 0-.995.142-1.419.424-.41.268-.734.643-.974 1.123-.226.48-.339 1.038-.339 1.673 0 .664.19 1.194.572 1.59.381.395.918.592 1.61.592Zm1.694 3.05.403-1.928.763-3.792.508-3.792.402-1.97h4.026l-2.288 11.482h-3.814Zm15.874-11.673c.975 0 1.801.205 2.479.615.678.395 1.158.988 1.44 1.78.297.776.325 1.75.085 2.923l-1.271 6.355h-4.025l1.186-5.974c.156-.734.106-1.3-.148-1.695-.24-.395-.692-.593-1.356-.593-.678 0-1.25.212-1.716.636-.466.423-.791 1.073-.974 1.949l-1.144 5.677h-4.025l2.288-11.482h3.813l-.657 3.22-.508-.932c.551-.862 1.228-1.49 2.033-1.886a5.7 5.7 0 0 1 2.5-.593Zm10.66 11.864a4.829 4.829 0 0 1-2.351-.615c-.735-.41-1.335-1.003-1.801-1.78-.466-.776-.699-1.722-.699-2.838 0-.96.162-1.843.487-2.648a6.572 6.572 0 0 1 1.335-2.097 6.224 6.224 0 0 1 1.991-1.377 5.932 5.932 0 0 1 2.436-.509c.834 0 1.561.142 2.182.424a3.11 3.11 0 0 1 1.483 1.377c.353.621.53 1.44.53 2.457s-.12 1.985-.36 2.903c-.24.904-.6 1.709-1.081 2.415a5.234 5.234 0 0 1-1.758 1.673c-.692.41-1.49.615-2.394.615Zm1.398-3.242c.551 0 1.024-.134 1.42-.402.409-.268.727-.643.953-1.123.24-.48.36-1.038.36-1.674 0-.663-.19-1.193-.572-1.588-.381-.41-.911-.615-1.589-.615-.522 0-.995.142-1.419.424-.41.268-.734.643-.974 1.123-.226.48-.339 1.038-.339 1.673 0 .664.19 1.194.572 1.59.381.395.91.592 1.588.592Zm1.695 3.05.403-1.927.741-3.792.53-3.792 1.25-6.207h4.025l-3.136 15.719h-3.813Zm17.801.192c-.82 0-1.603-.205-2.352-.615-.748-.41-1.356-1.003-1.822-1.78-.452-.776-.678-1.722-.678-2.838 0-.96.163-1.843.488-2.648a6.553 6.553 0 0 1 1.334-2.097 6.217 6.217 0 0 1 1.992-1.377 5.875 5.875 0 0 1 2.415-.509c.932 0 1.73.184 2.393.551.678.353 1.173.932 1.483 1.737.311.791.382 1.864.212 3.22-.127 1.285-.431 2.408-.911 3.369-.48.96-1.101 1.701-1.864 2.224-.763.508-1.659.763-2.69.763Zm1.398-3.242a2.53 2.53 0 0 0 1.419-.402c.41-.268.727-.643.953-1.123.241-.48.361-1.038.361-1.674 0-.663-.191-1.193-.572-1.588-.382-.41-.918-.615-1.61-.615-.523 0-.996.142-1.42.424a2.812 2.812 0 0 0-.974 1.123c-.226.48-.339 1.038-.339 1.673 0 .664.19 1.194.572 1.59.381.395.918.592 1.61.592Zm1.695 3.05.402-1.927.763-3.792.508-3.792.403-1.97h4.025l-2.288 11.482h-3.813Zm15.873-11.672c.975 0 1.801.205 2.479.615.678.395 1.158.988 1.441 1.78.296.776.324 1.75.084 2.923l-1.271 6.355h-4.025l1.186-5.974c.156-.734.106-1.3-.148-1.695-.24-.395-.692-.593-1.356-.593-.678 0-1.25.212-1.716.636-.466.423-.79 1.073-.974 1.949l-1.144 5.677h-4.025l2.288-11.482h3.813l-.657 3.22-.508-.932c.551-.862 1.229-1.49 2.034-1.886a5.693 5.693 0 0 1 2.499-.593Zm10.66 11.864a4.829 4.829 0 0 1-2.351-.615c-.735-.41-1.335-1.003-1.801-1.78-.466-.776-.699-1.722-.699-2.838 0-.96.163-1.843.487-2.648a6.572 6.572 0 0 1 1.335-2.097 6.224 6.224 0 0 1 1.991-1.377 5.933 5.933 0 0 1 2.437-.509c.833 0 1.56.142 2.182.424a3.112 3.112 0 0 1 1.482 1.377c.354.621.53 1.44.53 2.457s-.12 1.985-.36 2.903c-.24.904-.6 1.709-1.08 2.415a5.247 5.247 0 0 1-1.759 1.673c-.692.41-1.49.615-2.394.615Zm1.399-3.242c.55 0 1.023-.134 1.419-.402.409-.268.727-.643.953-1.123.24-.48.36-1.038.36-1.674 0-.663-.19-1.193-.572-1.588-.381-.41-.911-.615-1.588-.615-.523 0-.996.142-1.42.424a2.812 2.812 0 0 0-.974 1.123c-.226.48-.339 1.038-.339 1.673 0 .664.19 1.194.572 1.59.381.395.911.592 1.589.592Zm1.694 3.05.403-1.927.741-3.792.53-3.792 1.25-6.207h4.025l-3.135 15.719h-3.814Zm12.759 0 2.966-14.828h6.44c1.553 0 2.881.254 3.982.762 1.116.509 1.971 1.23 2.564 2.161.593.918.89 2.02.89 3.305 0 1.314-.226 2.5-.678 3.559a8.003 8.003 0 0 1-1.907 2.712c-.819.748-1.794 1.327-2.923 1.737-1.13.395-2.38.593-3.75.593h-7.584Zm4.872-3.346h2.839c1.059 0 1.949-.22 2.669-.657a4.363 4.363 0 0 0 1.653-1.78c.381-.762.572-1.617.572-2.563 0-.664-.142-1.229-.424-1.695-.268-.466-.678-.819-1.229-1.059-.536-.254-1.207-.381-2.012-.381h-2.458l-1.61 8.135Zm20.722 3.643c-1.511 0-2.831-.275-3.961-.826-1.116-.55-1.977-1.313-2.585-2.288-.607-.988-.911-2.125-.911-3.41 0-1.285.226-2.472.678-3.56a8.294 8.294 0 0 1 1.907-2.817 8.5 8.5 0 0 1 2.923-1.864c1.144-.438 2.408-.657 3.792-.657 1.37 0 2.585.24 3.644.72 1.059.48 1.85 1.173 2.373 2.076l-3.029 2.416a3.445 3.445 0 0 0-1.335-1.293c-.537-.296-1.179-.445-1.928-.445a4.95 4.95 0 0 0-1.97.382 4.403 4.403 0 0 0-1.504 1.08 4.826 4.826 0 0 0-.975 1.653 5.908 5.908 0 0 0-.339 2.033c0 .664.142 1.25.424 1.759.297.494.713.882 1.25 1.165.551.268 1.2.402 1.949.402a4.67 4.67 0 0 0 1.907-.402c.621-.269 1.193-.706 1.715-1.314l2.479 2.437c-.833 1.002-1.794 1.715-2.881 2.14-1.087.409-2.295.613-3.623.613Z"/></svg>