<svg width="1054" height="707" fill="none" xmlns="http://www.w3.org/2000/svg"><path d="M0 644.609h55.54l27.067-37.984h-55.54L0 644.609Z" fill="#DD8447"/><path d="M196.963 606.625H59.199v97.354h137.764v-97.354Z" fill="#DD8447"/><path d="M141.424 606.625H27.068v97.354h114.356v-97.354ZM224.012 644.609h-55.54l-27.046-37.984h55.539l27.047 37.984Z" fill="#F2A263"/><path d="M42.644 686.529H32.643v10.002h10.001v-10.002ZM57.177 686.529H47.176v10.002h10.001v-10.002ZM136.552 686.529h-10.001v10.002h10.001v-10.002Z" stroke="#334E8F" stroke-width="2.128" stroke-miterlimit="10"/><path d="M8.512 704h203.602" stroke="#1C3866" stroke-width="4.256" stroke-miterlimit="10"/><path d="m338.801 515.974-10.32-19.47c-.32-3.511-.596-6.98-.873-10.385a622.705 622.705 0 0 1-1.149-17.768l12.342 16.938-13.087-40.686c-.127-12.853.234-25.706 1.171-38.516l15.427 24.493-13.81-41.899a393.451 393.451 0 0 1 1.915-14.13c1.468-9.469 3.405-19.066 7.001-27.897l7.788 12.725-3.213-21.918c.809-1.319 1.639-2.618 2.575-3.873a48.56 48.56 0 0 1 4.979-5.724l12.108 39.984-2.766-46.943c7.235-4 15.513-5.702 23.493-3.723 6.171 1.532 11.618 5.149 15.938 9.852l-5.086 18.577 9.576-12.661a44.392 44.392 0 0 1 2 3.532c3.022 6.001 4.682 12.534 5.575 19.194l-24.109 47.326 24.769-24.216c-.681 12.661-2.873 25.216-5.894 37.622l-23.791 22.62 20.96-11.81a518.908 518.908 0 0 1-2.191 7.618l-34.303 32.238 30.43-19.641a327.175 327.175 0 0 1-1.362 4.214c-3.554 10.959-7.32 22.088-11.853 32.855l-23.152 11.938 18.896-2.49c-5.341 11.066-11.746 21.556-19.917 30.792-6.959 7.873-17.343 18.492-23.323 4.575-2.915-6.767-4.617-14.151-5.745-21.642l9.001 8.299Z" fill="#8FA4FE"/><path d="m330.652 510.399 11.427-21.577c.362-3.873.659-7.725.957-11.491.511-6.554.937-13.108 1.277-19.684l-13.661 18.748 14.491-45.07c.149-14.236-.255-28.472-1.277-42.666l-17.087 27.132 15.279-46.39a495.69 495.69 0 0 0-2.107-15.64c-1.617-10.47-3.788-21.109-7.746-30.898l-8.639 14.087 3.553-24.28a70.889 70.889 0 0 0-2.83-4.298c-1.638-2.256-3.511-4.363-5.533-6.32l-13.406 44.261 3.065-51.986c-8.023-4.426-17.194-6.32-26.025-4.128-6.831 1.702-12.853 5.703-17.641 10.916l5.639 20.556-10.597-14.023a47.214 47.214 0 0 0-2.213 3.916c-3.341 6.639-5.192 13.874-6.171 21.258l26.684 52.411-27.429-26.812c.766 14.023 3.192 27.919 6.533 41.665l26.344 25.068-23.216-13.087a620.21 620.21 0 0 0 2.426 8.426l38.005 35.707-33.685-21.747c.489 1.553 1 3.107 1.489 4.66 3.916 12.129 8.086 24.471 13.13 36.388l25.641 13.214-20.917-2.745c5.915 12.257 13.023 23.855 22.067 34.09 7.703 8.725 19.215 20.471 25.833 5.065 3.213-7.491 5.107-15.683 6.362-23.982l-10.022 9.256Z" fill="#93B2E8"/><path d="M300.711 358.549c17.662 84.246 27.387 170.151 29.046 256.205M365.826 378.871a1247.183 1247.183 0 0 0-26.238 231.35" stroke="#363636" stroke-width="4.256" stroke-miterlimit="10"/><path d="M384.743 594.283H283.197l8.512 101.503h84.522l8.512-101.503Z" fill="#F2A263"/><path d="M291.709 695.786h84.522l6.724-80.16c-1 2.532-2.043 4.852-3.213 6.554-10.831 15.492-27.982 26.216-45.942 31.515-14.641 4.32-29.834 5.596-45.155 5.533l3.064 36.558Z" fill="#DD8447"/><path d="M276.176 695.786h117.186" stroke="#1C3866" stroke-width="4.256" stroke-miterlimit="10"/><path d="M709.647 598.354c0 38.233 16.507 74.645-9.558 85.689h-55.103c-35.714 0-64.662-38.353-64.662-85.689 0-47.335 28.948-85.689 64.662-85.689h55.103c24.638 12.077 9.558 48.822 9.558 85.689Z" fill="#212121"/><path d="M700.089 684.043c35.712 0 64.661-38.364 64.661-85.689 0-47.325-28.949-85.689-64.661-85.689-35.711 0-64.661 38.364-64.661 85.689 0 47.325 28.95 85.689 64.661 85.689Z" fill="#363636"/><path d="M700.089 639.985c17.344 0 31.405-18.638 31.405-41.63 0-22.993-14.061-41.631-31.405-41.631-17.345 0-31.405 18.638-31.405 41.631 0 22.992 14.06 41.63 31.405 41.63Z" fill="#B7B7B7"/><path d="M700.09 573.746c-10.256 0-18.57 11.014-18.57 24.608 0 13.594 8.314 24.608 18.57 24.608h173.35v-49.186H700.09v-.03ZM873.444 546.195H773.16v27.551h100.284v-27.551Z" fill="#262626"/><path d="M1052.92.533H486.506v545.662h566.414V.533Z" fill="#3C5DE6"/><path d="M748.944 12.791H498.188v521.145h250.756V12.792Z" fill="#363636"/><path d="M748.944 12.791H498.188v99.921h250.756v-99.92Z" fill="#B7B7B7"/><path d="M498.189 20.043h250.757M498.189 27.69h250.757M498.189 35.367h250.757M498.189 43.044h250.757M498.189 50.72h250.757M498.189 58.397h250.757M498.189 66.073h250.757M498.189 73.72h250.757M498.189 81.397h250.757M498.189 89.074h250.757M498.189 96.75h250.757M498.189 104.428h250.757" stroke="#363636" stroke-width="1.517" stroke-miterlimit="10"/><path d="M1053.27 125.13c-21.39-2.155-43.93 2.336-54.16 18.661-5.159 8.223-5.857 18.388-6.433 28.067l-2.094 35.198c-.94 15.627-2.852 33.226-15.232 42.814-7.161 5.553-16.507 7.192-25.367 9.012-19.814 4.036-39.598 9.741-56.772 20.391-38.445 23.819-59.26 72.096-52.676 116.852 3.156 21.452 12.562 42.723 29.463 56.286 11.045 8.861 24.639 13.989 38.385 17.417 36.078 8.982 74.856 6.767 109.686-6.25 11.87-4.43 23.37-10.105 35.2-14.595V125.13Z" fill="#6D8AFF"/><path d="M984.895 598.354c0 38.233 16.505 74.645-9.558 85.689h-55.103c-35.714 0-64.662-38.353-64.662-85.689 0-47.335 28.948-85.689 64.662-85.689h55.103c24.639 12.077 9.558 48.822 9.558 85.689Z" fill="#212121"/><path d="M975.337 684.043c35.713 0 64.663-38.364 64.663-85.689 0-47.325-28.95-85.689-64.663-85.689-35.711 0-64.661 38.364-64.661 85.689 0 47.325 28.95 85.689 64.661 85.689Z" fill="#363636"/><path d="M975.335 639.985c17.344 0 31.405-18.638 31.405-41.63 0-22.993-14.061-41.631-31.405-41.631-17.345 0-31.405 18.638-31.405 41.631 0 22.992 14.06 41.63 31.405 41.63Z" fill="#B7B7B7"/><path d="M975.338 507.598v-12.077H845.014v50.673h68.393c13.018-27.127 35.866-38.596 61.931-38.596Z" fill="#3C5DE5"/><path d="M1026.65 546.194s-17.54-33.53-51.315-33.53h-27.552s11.682-5.037 27.552-5.037c15.869 0 40.505 7.526 60.655 38.597.4-.03-9.34-.03-9.34-.03Z" fill="#CCC"/><path d="M1052.92 684.043H526.439" stroke="#000" stroke-width="6.069" stroke-miterlimit="10"/><path d="m523.085 312.77-12.183 1.832 32.979 219.316 12.182-1.832-32.978-219.316Z" fill="#363636"/><path d="m605.905 531.63-49.884.455-32.953-219.291h82.837V531.63Z" fill="#282828"/><path d="m543.852 533.937 12.167-1.851 32.953-.304.152 2.155h-45.272Z" fill="#363636"/><path d="M748.94 533.936H589.123l-11.622-193.954c-1.729-28.826 21.908-52.797 50.764-51.522l120.706 5.431v240.045h-.031Z" fill="#F2A263"/><path d="M745.331 426.673c0-16.355-13.26-29.585-29.585-29.585-3.459 0-6.584.061-9.497.121v-.121H580.932l8.192 136.878h148.864c0-.03 7.343-90.969 7.343-107.293Z" fill="#DD8447"/><path d="M727.125 448.876c7.374-1.109 11.955-11.304 10.23-22.772-1.724-11.468-9.1-19.866-16.475-18.757-7.375 1.109-11.955 11.304-10.23 22.772 1.724 11.468 9.1 19.866 16.475 18.757Z" fill="#F2A263"/></svg>